<?xml version="1.0" encoding="UTF-8" standalone="no"?>
<svg width="140px" height="33px" viewBox="0 0 140 33" version="1.1" xmlns="http://www.w3.org/2000/svg" xmlns:xlink="http://www.w3.org/1999/xlink">
    <!-- Generator: Sketch 3.8.3 (29802) - http://www.bohemiancoding.com/sketch -->
    <title>logo_webdemo</title>
    <desc>Created with Sketch.</desc>
    <defs></defs>
    <g id="Page-1" stroke="none" stroke-width="1" fill="none" fill-rule="evenodd">
        <g id="logo_webdemo">
            <g id="Group" transform="translate(-184.000000, -235.000000)"></g>
            <g id="Group" transform="translate(-184.000000, -235.000000)"></g>
            <g id="Group" transform="translate(-184.000000, -235.000000)"></g>
            <g id="logo_webdemo-[转换]" transform="translate(0.000000, 5.000000)" fill="#FFFFFF">
                <g id="图层_1">
                    <path d="M135.271717,12.8905505 C135.673114,13.2231009 136.000995,13.616 136.254731,14.0694587 C136.508466,14.5229174 136.693306,15.0217431 136.809671,15.5659358 C136.925616,16.1101284 137.004804,16.6543211 137.047443,17.1985138 C137.068237,17.5414037 137.089662,17.9444312 137.110877,18.4078073 C137.131671,18.8716055 137.168849,19.3448991 137.221781,19.8287431 C137.274292,20.3123761 137.358941,20.7711101 137.475516,21.2043119 C137.591461,21.6379358 137.765799,22.0055138 137.99874,22.3076789 L133.020447,22.3076789 C132.745498,21.6227431 132.576621,20.8065596 132.513187,19.8589174 C132.449753,18.9119083 132.354603,18.0049908 132.227735,17.1381651 C132.058228,16.0096881 131.69905,15.1835872 131.149571,14.6592294 C130.599671,14.1355046 129.701306,13.8732202 128.454265,13.8732202 L122.876712,13.8732202 L122.876712,10.487156 L128.930018,10.487156 C130.071616,10.487156 130.927763,10.2453394 131.498457,9.76170642 C132.069151,9.27807339 132.354603,8.49206422 132.354603,7.4036789 C132.354603,6.35601835 132.069151,5.59511927 131.498457,5.12119266 C130.927763,4.64789908 130.071616,4.41072477 128.930018,4.41072477 L122.876712,4.41072477 L122.876712,0.722495413 L130.705744,0.722495413 C131.720475,0.722495413 132.634594,0.878853211 133.448521,1.19114679 C134.262027,1.50386239 134.959589,1.93178899 135.541416,2.47598165 C136.122612,3.02017431 136.566438,3.65024771 136.873105,4.3653578 C137.179352,5.08088991 137.332895,5.85191743 137.332895,6.67801835 C137.332895,7.94766055 137.052484,9.04638532 136.492712,9.97313761 C135.932311,10.9003119 135.018192,11.6057156 133.749936,12.0893486 L133.749936,12.1499083 C134.362639,12.3113303 134.8699,12.558 135.271717,12.8905505 L135.271717,12.8905505 Z M108.998365,22.7911009 C106.064237,22.7911009 103.793224,22.0886514 102.184694,20.6833303 C100.575954,19.2784312 99.7716895,17.1105229 99.7716895,14.1793945 L99.7716895,0.81006422 L104.536785,0.81006422 L104.536785,14.1793945 C104.536785,14.7617798 104.586986,15.3340367 104.688438,15.8957431 C104.78947,16.4578716 105.001826,16.9547982 105.325717,17.3863119 C105.649187,17.8182477 106.099735,18.169156 106.676311,18.4403028 C107.252886,18.7112385 108.026904,18.8467064 108.998155,18.8467064 C110.697845,18.8467064 111.87095,18.4702661 112.518941,17.7175963 C113.166301,16.9647156 113.490192,15.7858073 113.490192,14.1796055 L113.490192,0.810275229 L118.255288,0.810275229 L118.255288,14.1796055 C118.255288,17.0904771 117.4359,19.2533211 115.796913,20.6685596 C114.157927,22.0833761 111.891744,22.7911009 108.998365,22.7911009 L108.998365,22.7911009 Z M89.6708037,9.70642202 C89.6254338,9.41987156 89.5735525,9.13522018 89.5073881,8.85457798 C89.2979726,7.96791743 88.96379,7.17684404 88.5052603,6.48156881 C88.0463105,5.78629358 87.4478904,5.23218349 86.7104201,4.81881651 C85.9723196,4.40608257 85.0750046,4.19908257 84.0180548,4.19908257 C82.960895,4.19908257 82.0633699,4.40587156 81.3256895,4.81881651 C80.587589,5.23218349 79.989379,5.78629358 79.5308493,6.48156881 C79.0718995,7.17684404 78.738137,7.96812844 78.5287215,8.85457798 C78.4625571,9.13522018 78.4106758,9.41987156 78.3653059,9.70642202 L73.6378082,9.70642202 C73.7531233,8.80245872 73.9511963,7.93837615 74.2362283,7.1162844 C74.7149224,5.73607339 75.4028219,4.53163303 76.300347,3.50359633 C77.1976621,2.47577064 78.2993516,1.66992661 79.6058356,1.08522018 C80.9116895,0.50093578 82.3826393,0.208477064 84.0180548,0.208477064 C85.6732146,0.208477064 87.1487854,0.50093578 88.4453973,1.08522018 C89.741589,1.66992661 90.8384475,2.47577064 91.7359726,3.50359633 C92.6334977,4.53142202 93.3213973,5.73586239 93.8000913,7.1162844 C94.0851233,7.93837615 94.2831963,8.80224771 94.3985114,9.70642202 L89.6708037,9.70642202 L89.6708037,9.70642202 Z M56.4123836,0.722495413 L61.3906758,0.722495413 L61.3906758,18.3168624 L69.6948311,18.3168624 L69.6948311,22.3072569 L56.4123836,22.3072569 L56.4123836,0.722495413 L56.4123836,0.722495413 Z M45.9813059,9.70642202 C45.9359361,9.41987156 45.8840548,9.13522018 45.8178904,8.85457798 C45.6084749,7.96791743 45.2742922,7.17684404 44.8157626,6.48156881 C44.3568128,5.78629358 43.7586027,5.23218349 43.0209224,4.81881651 C42.2828219,4.40608257 41.3855068,4.19908257 40.3285571,4.19908257 C39.2711872,4.19908257 38.3738721,4.40587156 37.6361918,4.81881651 C36.8980913,5.23218349 36.2998813,5.78629358 35.8413516,6.48156881 C35.3824018,7.17684404 35.0486393,7.96812844 34.8392237,8.85457798 C34.7730594,9.13522018 34.7211781,9.41987156 34.6758082,9.70642202 L29.9483105,9.70642202 C30.0636256,8.80245872 30.2616986,7.93837615 30.5467306,7.1162844 C31.0254247,5.73607339 31.7133242,4.53163303 32.6108493,3.50359633 C33.5081644,2.47577064 34.6098539,1.66992661 35.9163379,1.08522018 C37.2221918,0.50093578 38.6931416,0.208477064 40.3285571,0.208477064 C41.9837169,0.208477064 43.4592877,0.50093578 44.7558995,1.08522018 C46.0520913,1.66992661 47.1489498,2.47577064 48.0464749,3.50359633 C48.94379,4.53142202 49.6318995,5.73586239 50.1105936,7.1162844 C50.3956256,7.93837615 50.5936986,8.80224771 50.7090137,9.70642202 L45.9813059,9.70642202 L45.9813059,9.70642202 Z M14.9518904,21.4760917 C13.6722922,20.9219817 12.60379,20.1610826 11.7470137,19.1936055 C10.8902374,18.2261284 10.2506484,17.0773945 9.82740639,15.7471927 C9.40458447,14.4169908 9.19285845,12.9658807 9.19285845,11.3938624 C9.19285845,9.6002844 9.45205479,8.03818349 9.97023744,6.70798165 C10.4888402,5.37777982 11.2078265,4.26977064 12.1278265,3.38268807 C13.0480365,2.49602752 14.1377534,1.83092661 15.396137,1.38738532 C16.6549406,0.944266055 18.0139361,0.722284404 19.4735434,0.722284404 L26.2176895,0.722284404 L26.2176895,4.7126789 L20.7109224,4.7126789 C19.4842557,4.7126789 18.4531416,4.87895413 17.6171598,5.21150459 C16.7818082,5.54405505 16.1098721,6.02304587 15.6021918,6.64742202 C15.0945114,7.27243119 14.7296621,8.02299083 14.5074338,8.89952294 C14.2854155,9.77626606 14.1743014,10.7587248 14.1743014,11.8471101 C14.1743014,13.0365688 14.3328858,14.0441376 14.6502648,14.8702385 C14.9676438,15.6969725 15.3910959,16.3667156 15.9195708,16.8805229 C16.4486758,17.3945413 17.0515068,17.7623303 17.728274,17.9838899 C18.4054612,18.2058716 19.103653,18.3164404 19.8224292,18.3164404 L26.2176895,18.3164404 L26.2176895,22.3068349 L19.4735434,22.3068349 C17.7391963,22.3074679 16.2321187,22.0306239 14.9518904,21.4760917 L14.9518904,21.4760917 Z M0.207525114,0.722495413 L5.18581735,0.722495413 L5.18581735,22.3074679 L0.207525114,22.3074679 L0.207525114,0.722495413 L0.207525114,0.722495413 Z M34.6871507,13.5045872 C34.73,13.7552661 34.7791507,14.0044679 34.8394338,14.2509266 C35.0488493,15.1078349 35.3826119,15.8786514 35.8415616,16.5635872 C36.3000913,17.248945 36.8983014,17.7984128 37.6364018,18.2111468 C38.3740822,18.6245138 39.2713973,18.8308807 40.3287671,18.8308807 C41.3855068,18.8308807 42.283032,18.6245138 43.0211324,18.2111468 C43.7588128,17.7984128 44.3570228,17.248945 44.8159726,16.5635872 C45.2745023,15.8786514 45.6086849,15.1078349 45.8181005,14.2509266 C45.8783836,14.0044679 45.9275342,13.7552661 45.9703836,13.5045872 L50.7029224,13.5045872 C50.5867671,14.3737339 50.3910046,15.2076422 50.1108037,16.0042018 C49.6321096,17.364578 48.94421,18.5487615 48.0466849,19.5563303 C47.1493699,20.5643211 46.0523014,21.3549725 44.7561096,21.9295505 C43.4594977,22.5039174 41.9839269,22.7911009 40.3287671,22.7911009 C38.6933516,22.7911009 37.2224018,22.5039174 35.9165479,21.9295505 C34.6100639,21.3551835 33.5083744,20.5643211 32.6110594,19.5563303 C31.7135342,18.5487615 31.0256347,17.364578 30.5469406,16.0042018 C30.2667397,15.2076422 30.0709772,14.3737339 29.9548219,13.5045872 L34.6871507,13.5045872 L34.6871507,13.5045872 Z M78.3766484,13.5045872 C78.4194977,13.7552661 78.4686484,14.0044679 78.5289315,14.2509266 C78.738347,15.1078349 79.0721096,15.8786514 79.5310594,16.5635872 C79.989589,17.248945 80.5877991,17.7984128 81.3258995,18.2111468 C82.0635799,18.6245138 82.960895,18.8308807 84.0182648,18.8308807 C85.0750046,18.8308807 85.9725297,18.6245138 86.7106301,18.2111468 C87.4483105,17.7984128 88.0465205,17.248945 88.5054703,16.5635872 C88.964,15.8786514 89.2981826,15.1078349 89.5075982,14.2509266 C89.5678813,14.0044679 89.617032,13.7552661 89.6598813,13.5045872 L94.3924201,13.5045872 C94.2762648,14.3737339 94.0805023,15.2076422 93.8003014,16.0042018 C93.3216073,17.364578 92.6337078,18.5487615 91.7361826,19.5563303 C90.8386575,20.5643211 89.7417991,21.3549725 88.4456073,21.9295505 C87.1489954,22.5039174 85.6734247,22.7911009 84.0182648,22.7911009 C82.3828493,22.7911009 80.9118995,22.5039174 79.6060457,21.9295505 C78.2995616,21.3551835 77.1978721,20.5643211 76.3005571,19.5563303 C75.403032,18.5487615 74.7151324,17.364578 74.2364384,16.0042018 C73.9562374,15.2076422 73.7604749,14.3737339 73.6443196,13.5045872 L78.3766484,13.5045872 L78.3766484,13.5045872 Z" id="Shape"></path>
                </g>
            </g>
        </g>
    </g>
</svg>